<?xml version="1.0" encoding="UTF-8" standalone="no"?>
<!DOCTYPE svg PUBLIC "-//W3C//DTD SVG 20010904//EN"
              "http://www.w3.org/TR/2001/REC-SVG-20010904/DTD/svg10.dtd">

<svg xmlns="http://www.w3.org/2000/svg"
     width="135.45mm" height="135.45mm"
     viewBox="0 0 512 512">
  <path id="Selection"
        fill="white" stroke="none" stroke-width="1"
        d="M 225.00,351.00
           C 225.10,340.42 228.32,329.95 231.67,320.00
             245.78,278.06 279.29,245.43 321.00,231.08
             342.08,223.82 355.40,223.97 377.00,224.00
             386.20,224.01 396.08,225.89 405.00,228.13
             449.22,239.23 486.74,272.30 502.94,315.00
             512.76,340.92 512.31,354.13 512.00,381.00
             511.82,396.22 504.23,420.50 497.22,434.00
             485.52,456.53 467.72,476.88 446.00,490.19
             426.20,502.32 400.47,511.96 377.00,512.00
             377.00,512.00 358.00,512.00 358.00,512.00
             349.81,511.90 334.86,509.11 327.00,506.65
             327.00,506.65 309.58,501.01 309.58,501.01
             309.58,501.01 282.00,505.92 282.00,505.92
             282.00,505.92 233.00,511.09 233.00,511.09
             233.00,511.09 221.00,512.00 221.00,512.00
             221.00,512.00 166.00,512.00 166.00,512.00
             166.00,512.00 154.00,511.09 154.00,511.09
             129.32,509.40 105.34,507.07 81.00,502.20
             61.16,498.23 38.20,491.70 21.00,480.94
             8.25,472.96 0.02,463.39 0.00,448.00
             0.00,448.00 0.00,64.00 0.00,64.00
             0.01,58.47 0.15,55.18 2.52,50.00
             10.11,33.41 33.66,23.45 50.00,18.00
             103.97,0.01 163.66,-0.66 220.00,0.00
             220.00,0.00 230.00,0.91 230.00,0.91
             230.00,0.91 256.00,2.83 256.00,2.83
             285.59,5.79 319.58,10.98 347.00,22.72
             365.17,30.50 383.97,42.04 384.00,64.00
             384.00,64.00 384.00,174.00 384.00,174.00
             383.99,179.11 384.17,182.73 380.61,186.90
             373.98,194.64 359.41,193.80 354.01,184.98
             351.79,181.37 352.01,178.05 352.00,174.00
             352.00,174.00 352.00,73.00 352.00,73.00
             351.98,60.96 346.09,58.93 336.00,54.31
             322.86,48.29 301.40,43.02 287.00,40.42
             268.41,37.07 249.80,35.20 231.00,33.91
             231.00,33.91 219.00,32.86 219.00,32.86
             219.00,32.86 192.00,32.86 192.00,32.86
             192.00,32.86 182.00,32.86 182.00,32.86
             152.50,33.05 122.98,35.40 94.00,41.20
             78.12,44.38 64.05,47.75 49.00,54.01
             45.83,55.33 36.19,59.93 35.20,63.18
             34.22,66.37 38.74,68.94 41.00,70.20
             47.93,74.08 56.37,77.35 64.00,79.58
             90.43,87.30 119.54,92.04 147.00,94.00
             147.00,94.00 155.00,94.00 155.00,94.00
             155.00,94.00 167.00,95.00 167.00,95.00
             167.00,95.00 184.00,95.00 184.00,95.00
             184.00,95.00 194.00,95.82 194.00,95.82
             194.00,95.82 206.00,95.00 206.00,95.00
             206.00,95.00 248.00,92.83 248.00,92.83
             248.00,92.83 302.00,85.01 302.00,85.01
             306.99,84.90 310.88,84.96 314.90,88.39
             322.89,95.23 321.96,109.39 312.98,115.00
             308.52,117.79 291.99,120.26 286.00,121.25
             286.00,121.25 232.00,127.09 232.00,127.09
             232.00,127.09 220.00,128.00 220.00,128.00
             220.00,128.00 168.00,128.00 168.00,128.00
             168.00,128.00 156.00,127.00 156.00,127.00
             156.00,127.00 147.00,127.00 147.00,127.00
             147.00,127.00 120.00,124.15 120.00,124.15
             88.45,120.38 61.48,115.50 32.00,103.00
             32.00,103.00 32.00,183.00 32.00,183.00
             32.01,185.62 31.81,188.60 33.02,191.00
             36.75,198.34 54.21,204.55 62.00,206.98
             86.79,214.69 120.06,220.14 146.00,222.00
             146.00,222.00 154.00,222.00 154.00,222.00
             154.00,222.00 164.00,223.16 164.00,223.16
             164.00,223.16 194.00,223.16 194.00,223.16
             194.00,223.16 218.00,223.16 218.00,223.16
             218.00,223.16 234.00,222.00 234.00,222.00
             247.06,221.94 256.80,224.02 255.96,240.00
             255.17,255.03 241.77,254.35 231.00,255.09
             231.00,255.09 221.00,256.00 221.00,256.00
             158.76,256.72 90.13,255.65 32.00,231.00
             32.00,231.00 32.00,439.00 32.00,439.00
             32.02,450.71 37.16,452.57 47.00,457.22
             58.34,462.57 73.69,466.53 86.00,469.35
             117.03,476.46 150.27,478.95 182.00,479.00
             182.00,479.00 193.00,479.66 193.00,479.66
             193.00,479.66 204.00,479.00 204.00,479.00
             204.00,479.00 219.00,479.00 219.00,479.00
             219.00,479.00 269.00,474.00 269.00,474.00
             249.17,454.11 237.69,435.72 229.34,409.00
             229.34,409.00 225.61,393.00 225.61,393.00
             225.21,390.79 225.03,387.21 223.40,385.60
             221.46,383.67 217.55,384.01 215.00,384.00
             215.00,384.00 163.00,384.00 163.00,384.00
             163.00,384.00 151.00,383.09 151.00,383.09
             151.00,383.09 118.00,380.15 118.00,380.15
             109.64,379.15 80.59,374.97 74.00,372.44
             61.89,367.79 61.01,352.42 68.21,345.21
             72.37,341.05 76.49,340.89 82.00,341.01
             82.00,341.01 137.00,348.83 137.00,348.83
             137.00,348.83 181.00,351.00 181.00,351.00
             181.00,351.00 192.00,351.68 192.00,351.68
             192.00,351.68 225.00,351.00 225.00,351.00 Z
           M 74.00,144.65
           C 80.75,143.25 87.79,143.48 92.61,149.10
             99.11,156.70 96.80,171.96 86.00,175.35
             64.38,182.14 54.79,152.73 74.00,144.65 Z
           M 367.00,256.37
           C 367.00,256.37 347.00,258.45 347.00,258.45
             323.76,263.12 302.30,274.58 286.09,292.00
             245.25,335.89 247.03,407.77 291.00,448.91
             315.90,472.21 345.45,481.22 379.00,478.91
             391.05,478.08 406.22,473.63 417.00,468.24
             427.82,462.83 440.68,453.81 448.91,445.00
             489.08,402.02 489.27,336.95 450.71,293.00
             442.96,284.15 430.49,274.68 420.00,269.26
             403.57,260.76 385.46,256.54 367.00,256.37 Z
           M 74.00,272.65
           C 80.75,271.25 87.79,271.48 92.61,277.10
             99.11,284.70 96.80,299.96 86.00,303.35
             64.38,310.14 54.79,280.73 74.00,272.65 Z
           M 352.00,352.00
           C 352.00,352.00 352.00,322.00 352.00,322.00
             352.01,317.42 351.78,313.98 354.65,310.04
             360.42,302.13 374.28,301.71 380.61,309.10
             384.17,313.27 383.99,316.89 384.00,322.00
             384.00,322.00 384.00,352.00 384.00,352.00
             384.00,352.00 414.00,352.00 414.00,352.00
             418.58,352.01 422.02,351.78 425.96,354.65
             433.87,360.42 434.29,374.28 426.90,380.61
             422.73,384.17 419.11,383.99 414.00,384.00
             414.00,384.00 384.00,384.00 384.00,384.00
             384.00,384.00 384.00,414.00 384.00,414.00
             383.99,418.58 384.22,422.02 381.35,425.96
             375.58,433.87 361.72,434.29 355.39,426.90
             351.83,422.73 352.01,419.11 352.00,414.00
             352.00,414.00 352.00,384.00 352.00,384.00
             352.00,384.00 322.00,384.00 322.00,384.00
             316.89,383.99 313.27,384.17 309.10,380.61
             301.71,374.28 302.13,360.42 310.04,354.65
             313.68,352.00 316.74,352.02 321.00,352.00
             321.00,352.00 352.00,352.00 352.00,352.00 Z
           M 74.00,400.65
           C 80.75,399.25 87.79,399.48 92.61,405.10
             99.11,412.70 96.80,427.96 86.00,431.35
             64.38,438.14 54.79,408.73 74.00,400.65 Z" />
</svg>
